<svg width="1517" height="992" viewBox="0 0 1517 992" fill="none" xmlns="http://www.w3.org/2000/svg">
<g clip-path="url(#clip0_367_129)">
<path d="M148 53C148 53.6473 148 54.2947 146.425 188.478C144.851 322.662 141.701 590.362 141.105 740.41C140.508 890.458 142.56 914.74 144.674 938" stroke="#FFF9EC" stroke-width="2" stroke-linecap="round"/>
<path d="M337.857 55.0256C337.857 54.7407 337.857 54.4559 335.323 195.788C332.789 337.12 327.721 620.079 325.8 773.994C323.879 927.91 325.259 944.208 326.681 961" stroke="#FFF9EC" stroke-width="2" stroke-linecap="round"/>
<path d="M518.802 32.0073C518.802 31.8844 518.802 31.7615 517.906 171.705C517.01 311.648 515.219 591.662 516.379 748.92C517.539 906.177 521.707 932.194 526 959" stroke="#FFF9EC" stroke-width="2" stroke-linecap="round"/>
<path d="M724 17C724 19.5758 724 22.1517 724.418 150.897C724.836 279.642 725.673 534.479 728.655 692.92C731.638 851.361 736.742 905.685 742 961" stroke="#FFF9EC" stroke-width="2" stroke-linecap="round"/>
<path d="M950 6C950 6.10424 950 6.20847 951.414 116.471C952.829 226.733 955.657 447.149 962.966 601.799C970.274 756.448 981.977 838.65 988.091 885.776C994.205 932.903 994.377 942.463 993.765 950" stroke="#FFF9EC" stroke-width="2" stroke-linecap="round"/>
<path d="M1128 8C1128 8.33512 1128 8.67024 1128.6 118.849C1129.21 229.028 1130.41 449.04 1136.81 596.23C1143.2 743.42 1154.75 811.121 1160.76 858.888C1166.77 906.655 1166.88 932.437 1167 959" stroke="#FFF9EC" stroke-width="2" stroke-linecap="round"/>
<path d="M1297 1C1297 1.21583 1297 1.43165 1300.53 156.648C1304.06 311.865 1311.12 622.077 1315.63 789.714C1320.15 957.351 1321.9 973.013 1324 991" stroke="#FFF9EC" stroke-width="2" stroke-linecap="round"/>
<path d="M25 92.9318C25.5078 92.9318 26.0155 92.9318 222.993 94.5482C419.971 96.1646 813.403 99.3974 1053.78 98.7324C1294.16 98.0674 1369.57 93.4067 1414.74 91.257C1459.91 89.1074 1472.55 89.61 1486 91.2009" stroke="#FFF9EC" stroke-width="2" stroke-linecap="round"/>
<path d="M31.0057 232.821C30.8933 232.821 30.7809 232.821 202.885 230.101C374.989 227.381 719.312 221.941 959.664 214.748C1200.02 207.555 1325.96 198.775 1393.27 194.379C1460.59 189.984 1465.45 190.24 1474.99 192.051C1484.52 193.862 1498.58 197.22 1516 201.633" stroke="#FFF9EC" stroke-width="2" stroke-linecap="round"/>
<path d="M31.0057 899.821C30.8933 899.821 30.7809 899.821 202.885 897.101C374.989 894.381 719.312 888.941 959.664 881.748C1200.02 874.555 1325.96 865.775 1393.27 861.379C1460.59 856.984 1465.45 857.24 1474.99 859.051C1484.52 860.862 1498.58 864.22 1516 868.633" stroke="#FFF9EC" stroke-width="2" stroke-linecap="round"/>
<path d="M1 416.801C1 416.891 1 416.982 245.555 409.925C490.11 402.868 979.221 388.66 1234.12 380.822C1489.02 372.983 1494.88 371.945 1502 370.821" stroke="#FFF9EC" stroke-width="2" stroke-linecap="round"/>
<path d="M21 616.91C21.6522 616.91 22.3043 616.91 268.659 602.72C515.014 588.53 1007.05 560.15 1514 530.91" stroke="#FFF9EC" stroke-width="2" stroke-linecap="round"/>
<path d="M19.1286 756.78C18.5771 756.752 18.1043 757.176 18.0727 757.727C18.0411 758.279 18.4626 758.748 19.0142 758.777L19.0714 757.778L19.1286 756.78ZM1516 748.892C1516.55 748.889 1517 748.438 1517 747.886C1517 747.334 1516.55 746.889 1516 746.893L1516 747.893L1516 748.892ZM19.0714 757.778L19.0142 758.777C19.7043 758.812 20.4125 758.844 267.378 757.214L267.378 756.214L267.378 755.215C20.3372 756.845 19.742 756.811 19.1286 756.78L19.0714 757.778ZM267.378 756.214L267.378 757.214C514.381 755.583 1007.72 752.288 1516 748.892L1516 747.893L1516 746.893C1007.72 750.288 514.381 753.584 267.378 755.215L267.378 756.214Z" fill="#FFF9EC"/>
</g>
<defs>
<clipPath id="clip0_367_129">
<rect width="1517" height="992" fill="white"/>
</clipPath>
</defs>
</svg>
