<svg width="431" height="586" viewBox="0 0 431 586" fill="none" xmlns="http://www.w3.org/2000/svg">
<path d="M68.8213 9.31909C68.8213 9.4801 68.8213 9.64111 69.6427 88.1386C70.4641 166.636 72.1069 323.465 73.4608 411.96C74.8147 500.454 75.8299 515.862 76.4251 528.809C77.0204 541.757 77.165 551.778 77.3141 562.102" stroke="#5B5B5B" stroke-opacity="0.1" stroke-linecap="round"/>
<path d="M150.003 9.00488C150.003 9.08402 150.003 9.16316 150.864 104.131C151.725 199.099 153.447 388.954 155.221 584.562" stroke="#5B5B5B" stroke-opacity="0.1" stroke-linecap="round"/>
<path d="M240.149 3.56348C240.149 3.80362 240.149 4.04377 240.321 91.9846C240.493 179.925 240.837 355.56 241.083 451.059C241.33 546.558 241.469 556.601 241.861 567.237" stroke="#5B5B5B" stroke-opacity="0.1" stroke-linecap="round"/>
<path d="M322.728 1C322.728 1.31929 322.728 1.63857 327.176 95.0289C331.624 188.419 340.521 374.871 349.687 566.733" stroke="#5B5B5B" stroke-opacity="0.1" stroke-linecap="round"/>
<path d="M0.859131 126.207C2.26369 126.207 3.66825 126.207 50.443 124.752C97.2178 123.298 189.32 120.389 245.435 117.6C301.551 114.812 318.888 112.232 339.222 110.512C359.556 108.792 382.362 108.011 405.859 107.207" stroke="#5B5B5B" stroke-opacity="0.1" stroke-linecap="round"/>
<path d="M5.85913 249.207C5.85913 249.121 5.85913 249.036 24.6081 248.949C43.357 248.862 80.8548 248.777 102.155 248.407C123.455 248.037 127.422 247.386 137.739 246.781C148.057 246.176 164.605 245.636 207.814 243.894C251.022 242.152 320.39 239.224 391.859 236.207" stroke="#5B5B5B" stroke-opacity="0.1" stroke-linecap="round"/>
<path d="M10.8591 389.207C10.9267 389.207 10.9943 389.207 35.2459 388.131C59.4974 387.055 107.931 384.904 142.641 382.526C177.351 380.148 196.871 377.608 221.725 375.765C246.579 373.921 276.176 372.851 293.512 371.981C315.027 370.476 337.82 369.535 369.378 368.98C382.45 368.709 389.547 368.462 396.859 368.207" stroke="#5B5B5B" stroke-opacity="0.1" stroke-linecap="round"/>
<path d="M12.8591 498.048C12.9269 498.048 12.9946 498.048 42.4853 498.141C71.976 498.234 130.888 498.42 200.514 497.092C270.14 495.764 348.696 492.917 429.859 490.207" stroke="#5B5B5B" stroke-opacity="0.1" stroke-linecap="round"/>
</svg>
