<svg width="1366" height="777" viewBox="0 0 1366 777" fill="none" xmlns="http://www.w3.org/2000/svg">
<g clip-path="url(#clip0_367_129)">
<path d="M64.7783 40.7285C64.7783 41.2366 64.7783 41.7447 63.3621 147.06C61.9459 252.375 59.1136 462.482 58.5772 580.248C58.0408 698.014 59.8862 717.072 61.7876 735.328" stroke="#FFF9EC" stroke-width="2" stroke-linecap="round"/>
<path d="M255.45 42.2769C255.45 42.0754 255.45 41.8739 252.882 141.839C250.314 241.804 245.178 441.943 243.231 550.808C241.285 659.673 242.683 671.201 244.124 683.078" stroke="#FFF9EC" stroke-width="2" stroke-linecap="round"/>
<path d="M436.008 24.5975C436.008 24.5011 436.008 24.4048 435.138 134.127C434.268 243.85 432.528 463.394 433.655 586.691C434.782 709.989 438.829 730.388 442.998 751.404" stroke="#FFF9EC" stroke-width="2" stroke-linecap="round"/>
<path d="M640.713 12.9004C640.713 14.921 640.713 16.9416 641.129 117.935C641.545 218.928 642.378 418.832 645.345 543.12C648.313 667.408 653.39 710.022 658.622 753.413" stroke="#FFF9EC" stroke-width="2" stroke-linecap="round"/>
<path d="M867.105 4.06055C867.105 4.14231 867.105 4.22406 868.501 90.7079C869.897 177.192 872.688 350.075 879.901 471.374C887.113 592.673 898.661 657.148 904.695 694.111C910.729 731.075 910.898 738.573 910.294 744.485" stroke="#FFF9EC" stroke-width="2" stroke-linecap="round"/>
<path d="M1044.83 5.63672C1044.83 5.89951 1044.83 6.16231 1045.44 92.5628C1046.05 178.963 1047.27 351.493 1053.72 466.918C1060.18 582.342 1071.84 635.432 1077.91 672.891C1083.97 710.349 1084.09 730.566 1084.21 751.397" stroke="#FFF9EC" stroke-width="2" stroke-linecap="round"/>
<path d="M1213.9 0C1213.9 0.169356 1213.9 0.338707 1217.41 122.133C1220.93 243.928 1227.97 487.342 1232.47 618.882C1236.96 750.423 1238.71 762.713 1240.8 776.826" stroke="#FFF9EC" stroke-width="2" stroke-linecap="round"/>
<path d="M20.5103 91.7125C20.9454 91.7125 21.3805 91.7125 190.159 93.3652C358.938 95.0179 696.047 98.3232 902.016 97.6433C1107.98 96.9634 1172.6 92.1981 1211.3 90.0002C1250 87.8023 1260.83 88.3162 1272.36 89.9428" stroke="#FFF9EC" stroke-width="2" stroke-linecap="round"/>
<path d="M26.014 231.993C25.9176 231.993 25.8212 231.993 173.307 229.265C320.793 226.538 615.864 221.084 821.835 213.872C1027.81 206.66 1135.74 197.857 1193.42 193.45C1251.11 189.043 1255.28 189.3 1263.45 191.116C1271.62 192.932 1283.66 196.299 1298.59 200.723" stroke="#FFF9EC" stroke-width="2" stroke-linecap="round"/>
<path d="M0 415.665C0 415.756 0 415.846 209.533 408.784C419.066 401.723 838.132 387.505 1056.53 379.662C1274.92 371.818 1279.95 370.778 1286.05 369.654" stroke="#FFF9EC" stroke-width="2" stroke-linecap="round"/>
<path d="M16.7852 616.486C17.4013 616.486 18.0174 616.486 250.753 602.262C483.488 588.037 948.324 559.588 1427.25 530.277" stroke="#FFF9EC" stroke-width="2" stroke-linecap="round"/>
</g>
<defs>
<clipPath id="clip0_367_129">
<rect width="1366" height="777" fill="white"/>
</clipPath>
</defs>
</svg>
